<svg height="512" viewBox="0 0 64 64" width="512" xmlns="http://www.w3.org/2000/svg"><g id="Flat"><g id="Color_copy" data-name="Color copy"><g><g><path d="m31 18h6a3 3 0 0 1 3 3v16a0 0 0 0 1 0 0h-12a0 0 0 0 1 0 0v-16a3 3 0 0 1 3-3z" fill="#57b7eb"/><path d="m32.05 18h-1.05a3 3 0 0 0 -3 3v16h12v-8.7a11.994 11.994 0 0 1 -7.95-10.3z" fill="#4891d3"/><g fill="#f9e109"><path d="m31 14h6v4h-6z"/><path d="m32 10h4v4h-4z"/><path d="m28 23h12v4h-12z"/></g><path d="m33.618 23h-5.618v4h9.372a12.056 12.056 0 0 1 -3.754-4z" fill="#fcbc04"/><path d="m35 16a2.99 2.99 0 0 1 -2.816-2h-1.184v4h6v-2z" fill="#fcbc04"/><path d="m33 10h-1v4h4v-1a3 3 0 0 1 -3-3z" fill="#fcbc04"/></g><path d="m44.25-.148a2 2 0 0 1 2 2v49a0 0 0 0 1 0 0h-4a0 0 0 0 1 0 0v-49a2 2 0 0 1 2-2z" fill="#f9e109" transform="matrix(.866 .5 -.5 .866 18.604 -18.728)"/><path d="m57.24 3.441-13.008 22.53a3.989 3.989 0 0 1 -3.79 1.975l-10.674 18.49 3.464 2 24.5-42.436a1.994 1.994 0 0 0 -.492-2.559z" fill="#fcbc04"/><g><path d="m14.562 19.026h6v6h-6z" fill="#e9f1f2" transform="matrix(.866 -.5 .5 .866 -8.66 11.732)"/><path d="m20.062 20.624a3 3 0 0 1 -4.1-1.1l-.018-.031-2.482 1.433 3 5.2 5.2-3-1.482-2.567z" fill="#d0d8da"/><path d="m34.124 36.713-12.124 7-7.151-15.846a3 3 0 0 1 1.234-3.832l3.958-2.285a3 3 0 0 1 3.936.847z" fill="#f9e109"/><path d="m6 16 2 3.464a4 4 0 0 1 5.464 1.464l5.2-3-2-3.464 1.732-1-2-3.464z" fill="#84d2f4"/><path d="m17.124 8.732h4v4h-4z" fill="#f9e109" transform="matrix(.866 -.5 .5 .866 -2.804 11)"/><path d="m26.718 26.41a6 6 0 0 1 -8.445-2.74l-.322-.714-1.868 1.079a3 3 0 0 0 -1.234 3.832l7.151 15.846 12.124-7z" fill="#fcbc04"/><path d="m12.911 16.414a4 4 0 0 0 -1.911-.486 4.137 4.137 0 0 1 -2.9-1.059l-.054-.052-2.046 1.183 2 3.464a4 4 0 0 1 5.464 1.464l5.2-3-1.049-1.817-1.744.624a3.626 3.626 0 0 1 -2.96-.321z" fill="#57b7eb"/><path d="m21.124 10.464a2 2 0 0 1 -2.732-.732l-.384-.665-1.616.933 2 3.464 3.464-2-.616-1.064z" fill="#fcbc04"/></g><g><path d="m41 61h-24l-4-26h32z" fill="#d0d8da"/><path d="m10 31h38v4h-38z" fill="#e9f1f2"/><path d="m38.743 57a20.13 20.13 0 0 0 3.257-2.472l.545-3.541a18.051 18.051 0 0 1 -8.283 5.936 15.983 15.983 0 0 1 -10.182-4.972 3.514 3.514 0 0 0 1.033-.533 3.517 3.517 0 0 1 3.918-.2 1.651 1.651 0 0 0 2.483-1.648l-1.8-12.57h14.978l.308-2h-32l4 26h24l.615-4z" fill="#93999a"/><path d="m16 33a2.99 2.99 0 0 1 -2.816-2h-3.184v4h38v-2z" fill="#d0d8da"/><path d="m48 38h-3.462l-.307 2h2.738c-.55 8.91-8.4 16-17.969 16s-17.419-7.09-17.969-16h2.738l-.307-2h-3.462a1 1 0 0 0 -1 1c0 10.477 8.972 19 20 19s20-8.523 20-19a1 1 0 0 0 -1-1z" fill="#84d2f4"/></g><g><path d="m26.5 28.5a2.122 2.122 0 0 1 -3 0 2.122 2.122 0 0 0 -3 0 6.365 6.365 0 0 0 -1.8 3.6l-2.7 18.9 2.973-1.784a3.517 3.517 0 0 1 3.918.2 3.513 3.513 0 0 0 4.218 0 3.517 3.517 0 0 1 3.918-.2 1.651 1.651 0 0 0 2.483-1.648l-2.21-15.468a6.365 6.365 0 0 0 -1.8-3.6 2.122 2.122 0 0 0 -3 0z" fill="#84d2f4"/><path d="m27.728 37.606-.122-1.222a6.363 6.363 0 0 0 -1.606-3.634 2.138 2.138 0 0 0 -3-.192 2.122 2.122 0 0 1 -2.973-.047 2.39 2.39 0 0 0 -1.26-.669c-.016.087-.045.17-.058.258l-2.709 18.9 2.973-1.784a3.517 3.517 0 0 1 3.918.2 3.513 3.513 0 0 0 4.218 0 3.517 3.517 0 0 1 3.918-.2 1.651 1.651 0 0 0 2.483-1.648l-.343-2.4a9.31 9.31 0 0 1 -5.439-7.562z" fill="#57b7eb"/><path d="m23.99 35.12-1.72 13.76-.03.15a3.465 3.465 0 0 0 -1.96-.27.448.448 0 0 1 .01-.12l1.72-13.76a1 1 0 1 1 1.98.24z" fill="#4891d3"/><path d="m29.84 48.67v.11a3.256 3.256 0 0 0 -.62-.06 3.682 3.682 0 0 0 -1.35.26.453.453 0 0 1 -.03-.16l-.84-11.75a1 1 0 1 1 2-.14z" fill="#4891d3"/><path d="m27.606 36.384.122 1.222a9.247 9.247 0 0 0 1.634 4.394l-.362-5.07a1.013 1.013 0 0 0 -1.07-.93 1 1 0 0 0 -.375.1c.014.1.045.189.051.284z" fill="#57b7eb"/></g></g></g></g></svg>