<svg enable-background="new 0 0 256 256" height="512" viewBox="0 0 256 256" width="512" xmlns="http://www.w3.org/2000/svg"><g id="Layer_27"><g><g><g><path d="m182.667 156.136c-2.624-4.173-8.47-4.88-12.28-1.944l7.093-5.465c3.599-2.773 4.269-7.938 1.496-11.538-2.773-3.599-7.939-4.269-11.538-1.496l8.175-6.299c3.599-2.773 4.269-7.939 1.496-11.538s-7.939-4.269-11.538-1.496l-8.175 6.299c3.459-2.665 4.259-7.605 1.703-11.239-2.716-3.863-8.06-4.633-11.745-1.795-.051.039-.267.206-.216.167l-31.924 24.597c4.239-3.266 4.823-9.583 1.055-13.57-3.283-3.473-8.798-3.604-12.584-.687l-8.711 6.712c-6.794 5.235-11.827 12.421-14.424 20.595-2.707 6.569-2.469 14.959-13.645 24.347l-38.298 29.569 37.986 46.966 44.771-34.97c6.746-5.198 12.413-6.218 16.774-7.995 3.464-1.239 6.712-3.014 9.626-5.259l42.666-32.873c3.402-2.62 4.525-7.451 2.237-11.088z" fill="#f9d0b4"/></g></g><g><g><circle cx="225.371" cy="131.15" fill="#b2e26d" r="28.129"/></g></g><g><g><path d="m182.667 156.136c-2.624-4.173-8.47-4.88-12.28-1.944l7.093-5.465c3.599-2.773 4.269-7.938 1.496-11.538-2.773-3.599-7.939-4.269-11.538-1.496l8.175-6.299c3.599-2.773 4.269-7.939 1.496-11.538s-7.939-4.269-11.538-1.496l-8.175 6.299c3.459-2.665 4.259-7.605 1.703-11.239-2.716-3.863-8.06-4.633-11.745-1.795-.051.039-.267.206-.216.167l-31.924 24.597c4.239-3.266 4.823-9.583 1.055-13.57-3.283-3.473-8.798-3.604-12.584-.687l-8.711 6.712c-6.794 5.235-11.827 12.421-14.424 20.595-2.707 6.569-2.469 14.959-13.645 24.347l-8.805 6.798 37.854 46.802 15.409-12.036c6.746-5.198 12.413-6.218 16.774-7.995 3.464-1.239 6.712-3.014 9.626-5.259l42.666-32.873c3.403-2.619 4.526-7.45 2.238-11.087z" fill="#70d6f9"/></g></g><g><g><path d="m225.371 159.279c-15.535 0-28.129-12.594-28.129-28.129 0-4.792 1.201-9.301 3.314-13.25l-40.695-52.755c-5.132-6.652-14.774-7.897-21.426-2.765l-68.214 52.62c-6.653 5.132-7.897 14.774-2.765 21.426l11.706 15.176c.421-1.455.845-2.846 1.387-4.162 2.597-8.174 7.63-15.361 14.424-20.595l8.711-6.712c3.786-2.917 9.301-2.786 12.584.687 3.768 3.987 3.184 10.303-1.055 13.569l31.924-24.597c-.051.039.166-.127.216-.166 3.684-2.839 9.029-2.068 11.745 1.795 2.556 3.634 1.757 8.573-1.703 11.239l8.175-6.299c3.599-2.773 8.765-2.103 11.538 1.496s2.103 8.765-1.496 11.537l-8.175 6.299c3.599-2.773 8.765-2.103 11.538 1.496s2.103 8.765-1.496 11.538l-7.092 5.464c3.81-2.935 9.656-2.228 12.28 1.944 2.287 3.637 1.165 8.467-2.238 11.09l-42.666 32.872c-2.914 2.245-6.162 4.02-9.626 5.259-1.755.715-3.724 1.311-5.887 2.102l8.808 11.418c5.132 6.653 14.774 7.897 21.426 2.765l68.214-52.62c3.219-2.483 5.159-6.025 5.736-9.77-.353.014-.706.028-1.063.028z" fill="#f5c84c"/></g></g><g><g><path d="m239.26 122.294c-2.026-2.027-5.315-2.027-7.341 0l-8.981 8.981-4.114-4.114c-2.026-2.027-5.315-2.027-7.341 0-2.028 2.027-2.028 5.314-.001 7.342l7.785 7.785c.974.973 2.294 1.52 3.671 1.52s2.697-.547 3.67-1.52l12.651-12.651c2.028-2.029 2.028-5.316.001-7.343z" fill="#edf4fc"/></g></g><g><g><path d="m201.206 56.1h-2.4v-2.3c0-1.8-1.4-3.2-3.2-3.2-1.7 0-3.2 1.4-3.2 3.1v2.4h-2.3c-1.8 0-3.2 1.4-3.2 3.2-.1 1.7 1.3 3.2 3.2 3.2h2.3v2.3c0 1.8 1.4 3.2 3.2 3.2 1.7 0 3.2-1.4 3.2-3.1v-2.4h2.3c1.8 0 3.2-1.4 3.2-3.2 0-1.7-1.4-3.2-3.1-3.2z" fill="#70d6f9"/></g></g><g><g><path d="m224.506 68.5c-1.878 0-3.4 1.522-3.4 3.4s1.522 3.4 3.4 3.4 3.4-1.522 3.4-3.4-1.522-3.4-3.4-3.4z" fill="#f5c84c"/></g></g><g><g><path d="m207.288 212.2c-3.1-.6-5.6-3-6.2-6.1 0-.1-.3-.1-.3 0-.6 3.1-3.1 5.5-6.2 6.1-.1 0-.1.2 0 .3 3.1.6 5.6 3 6.2 6.1 0 .1.3.1.3 0 .6-3.1 3.1-5.5 6.2-6.1.1-.1.1-.3 0-.3z" fill="#fc657e"/></g></g><g><g><path d="m3.4 111c-1.878 0-3.4 1.522-3.4 3.4s1.522 3.4 3.4 3.4 3.4-1.522 3.4-3.4-1.522-3.4-3.4-3.4z" fill="#87d147"/></g></g><g><g><path d="m31.288 136.2c-4.5-.8-8-4.3-8.9-8.7 0-.2-.4-.2-.4 0-.9 4.4-4.4 7.9-8.9 8.7-.2 0-.2.3 0 .4 4.5.8 8 4.3 8.9 8.7 0 .2.4.2.4 0 .9-4.4 4.4-7.9 8.9-8.7.2-.1.2-.4 0-.4z" fill="#f5c84c"/></g></g><g><g><path d="m117.371 132.728c-.842-1.093-2.412-1.297-3.506-.455l-7.073 5.45c-1.094.843-1.297 2.413-.455 3.506.493.639 1.233.974 1.982.974.532 0 1.069-.169 1.524-.52l7.073-5.45c1.094-.841 1.297-2.411.455-3.505z"/></g></g><g><g><path d="m159.376 121.135c-.842-1.093-2.413-1.298-3.506-.455l-21.105 16.261c-1.094.843-1.297 2.413-.455 3.506.493.639 1.233.974 1.982.974.532 0 1.069-.169 1.524-.52l21.105-16.261c1.095-.842 1.298-2.411.455-3.505z"/></g></g><g><g><path d="m169.418 134.168c-.843-1.093-2.412-1.297-3.506-.455l-21.105 16.261c-1.094.843-1.297 2.413-.455 3.506.493.639 1.233.974 1.982.974.532 0 1.069-.169 1.524-.52l21.105-16.261c1.094-.841 1.298-2.411.455-3.505z"/></g></g><g><g><path d="m179.46 147.202c-.843-1.093-2.412-1.297-3.506-.455l-21.105 16.261c-1.094.843-1.297 2.413-.455 3.506.493.639 1.233.974 1.982.974.532 0 1.069-.169 1.524-.52l21.105-16.261c1.094-.842 1.298-2.412.455-3.505z"/></g></g><g><g><path d="m184.784 154.805c-1.29-2.05-3.208-3.545-5.503-4.316 2.112-1.738 3.463-4.174 3.816-6.899.369-2.841-.392-5.656-2.14-7.926-1.257-1.631-2.916-2.84-4.804-3.528l.986-.76c2.27-1.749 3.723-4.276 4.091-7.118s-.392-5.657-2.141-7.926-4.277-3.723-7.118-4.091c-2.843-.368-5.656.392-7.926 2.141l-.988.762c-.17-1.798-.799-3.577-1.913-5.16-1.703-2.421-4.247-3.999-7.165-4.442-2.919-.444-5.813.305-8.149 2.104l-.204.156c-.004.003-.008.006-.013.01-.001.001-.003.002-.004.003l-24.347 18.759c-.132-2.772-1.251-5.434-3.176-7.471-4.054-4.29-11.051-4.708-15.927-.95l-8.711 6.711c-7.204 5.551-12.476 13.06-15.25 21.721-.675 1.658-1.161 3.353-1.675 5.144-1.54 5.371-3.285 11.457-11.188 18.111l-38.257 29.537c-1.093.844-1.295 2.414-.451 3.507s2.415 1.295 3.507.451l38.298-29.569c.027-.021.054-.042.08-.065 9.106-7.649 11.164-14.827 12.817-20.594.484-1.688.941-3.284 1.531-4.715.026-.064.05-.129.071-.195 2.455-7.727 7.146-14.425 13.567-19.372l8.711-6.711c2.868-2.21 6.927-2.023 9.241.424 1.313 1.389 1.953 3.202 1.803 5.107-.148 1.886-1.084 3.622-2.566 4.764-1.094.843-1.297 2.413-.455 3.506.843 1.093 2.412 1.297 3.506.455.003-.002.006-.005.009-.007l31.915-24.59c.029-.023.059-.046.087-.07.043-.031.086-.063.129-.096 1.247-.961 2.789-1.358 4.348-1.123 1.556.236 2.915 1.08 3.826 2.375 1.767 2.512 1.248 5.947-1.184 7.82-1.094.843-1.297 2.413-.455 3.506.843 1.093 2.413 1.297 3.506.455l8.175-6.298c1.211-.934 2.716-1.339 4.231-1.143 1.517.197 2.866.972 3.8 2.184s1.339 2.714 1.143 4.231c-.197 1.517-.972 2.867-2.184 3.8l-8.169 6.294-.006.004c-1.094.843-1.297 2.413-.455 3.506.843 1.093 2.412 1.297 3.506.455 1.212-.933 2.716-1.337 4.231-1.143 1.517.197 2.867.972 3.8 2.184.934 1.211 1.339 2.714 1.143 4.231-.197 1.517-.972 2.866-2.184 3.8l-7.084 5.458c-.003.002-.005.004-.008.006-1.094.843-1.297 2.413-.455 3.506.843 1.093 2.413 1.297 3.506.455 1.366-1.053 3.147-1.48 4.889-1.169 1.598.285 2.93 1.16 3.75 2.463 1.546 2.459.822 5.875-1.648 7.779l-42.666 32.873c-2.709 2.087-5.717 3.731-8.942 4.886-.034.012-.067.024-.1.038-.979.399-2.069.771-3.224 1.165-3.866 1.319-8.677 2.961-14.146 7.175l-44.771 34.97c-1.088.85-1.281 2.421-.431 3.509.493.631 1.229.961 1.972.961.538 0 1.08-.173 1.537-.53l44.757-34.96c4.801-3.7 8.996-5.131 12.696-6.394 1.207-.412 2.348-.801 3.445-1.246 3.698-1.33 7.149-3.218 10.258-5.614l42.666-32.873c4.493-3.456 5.736-9.781 2.833-14.398z"/></g></g><g><g><path d="m133.967 49.145c-27.368-26.624-63.467-42.238-101.648-43.965-1.375-.055-2.548 1.005-2.61 2.385-.063 1.379 1.005 2.548 2.385 2.61 36.957 1.671 71.898 16.784 98.388 42.553.486.473 1.115.708 1.743.708.651 0 1.302-.253 1.792-.757.962-.989.94-2.572-.05-3.534z"/></g></g><g><g><path d="m100.611 53.581c-8.355-6.189-17.356-11.555-26.752-15.949-1.251-.583-2.739-.045-3.324 1.206s-.045 2.739 1.206 3.324c9.094 4.252 17.806 9.446 25.894 15.437.448.332.969.491 1.486.491.765 0 1.521-.35 2.011-1.012.822-1.11.589-2.675-.521-3.497z"/></g></g><g><g><path d="m74.86 60.932c-9.157-5.894-18.951-10.837-29.108-14.694-1.29-.491-2.734.159-3.225 1.45-.49 1.291.159 2.734 1.45 3.225 9.832 3.733 19.312 8.519 28.177 14.224.418.27.887.398 1.351.398.822 0 1.627-.405 2.104-1.147.748-1.162.412-2.709-.749-3.456z"/></g></g><g><g><path d="m60.727 105.729c-13.05-8.816-27.287-15.572-42.317-20.08-1.325-.397-2.716.354-3.113 1.676-.397 1.323.354 2.716 1.676 3.113 14.545 4.362 28.325 10.901 40.955 19.434.429.29.916.429 1.397.429.803 0 1.591-.386 2.074-1.101.773-1.144.472-2.698-.672-3.471z"/></g></g><g><g><g><path d="m225.371 100.521c-16.889 0-30.629 13.74-30.629 30.629s13.74 30.629 30.629 30.629 30.629-13.74 30.629-30.629-13.74-30.629-30.629-30.629zm0 56.258c-14.132 0-25.629-11.497-25.629-25.629s11.497-25.629 25.629-25.629 25.629 11.497 25.629 25.629-11.497 25.629-25.629 25.629z"/></g></g></g><g><g><g><path d="m184.784 154.806c0-.001 0-.001 0 0-1.29-2.051-3.208-3.546-5.503-4.316 2.112-1.738 3.463-4.174 3.816-6.899.369-2.841-.392-5.656-2.14-7.926-1.257-1.631-2.916-2.84-4.804-3.528l.987-.76c2.27-1.749 3.722-4.276 4.091-7.118.368-2.841-.392-5.656-2.141-7.926-3.609-4.684-10.358-5.561-15.044-1.95l-.988.762c-.17-1.798-.799-3.577-1.913-5.16-1.703-2.421-4.247-3.999-7.165-4.442-2.919-.444-5.813.305-8.149 2.104l-.206.158c-.003.003-.007.005-.011.008-.002.001-.004.003-.005.004l-24.346 18.758c-.132-2.772-1.251-5.434-3.176-7.471-4.055-4.29-11.05-4.707-15.927-.95l-8.711 6.711c-7.204 5.551-12.476 13.06-15.25 21.721-.675 1.658-1.161 3.352-1.675 5.144-1.54 5.371-3.285 11.457-11.188 18.111l-8.764 6.766c-.533.411-.877 1.02-.955 1.688-.079.668.116 1.34.539 1.863l37.854 46.802c.494.61 1.216.928 1.945.928.539 0 1.081-.173 1.538-.53l15.396-12.026c4.801-3.7 8.996-5.131 12.696-6.394 1.207-.412 2.348-.801 3.445-1.246 3.698-1.33 7.149-3.218 10.258-5.614l42.666-32.873c4.49-3.458 5.733-9.783 2.83-14.399zm-5.881 10.44-42.666 32.873c-2.709 2.087-5.717 3.731-8.942 4.886-.034.012-.067.025-.1.038-.979.399-2.069.771-3.224 1.165-3.866 1.319-8.677 2.961-14.146 7.175l-13.472 10.523-34.7-42.903 6.781-5.235c.027-.021.054-.042.08-.065 9.106-7.649 11.164-14.827 12.817-20.594.484-1.688.941-3.284 1.531-4.715.026-.064.05-.129.071-.195 2.455-7.727 7.146-14.425 13.567-19.372l8.711-6.711c2.868-2.21 6.927-2.023 9.241.424 1.313 1.389 1.953 3.202 1.803 5.107-.148 1.886-1.084 3.622-2.566 4.764-1.094.843-1.297 2.413-.455 3.506.843 1.093 2.412 1.297 3.506.455l31.922-24.596.001-.001c.029-.023.059-.046.087-.07.043-.031.086-.063.129-.096 1.247-.961 2.789-1.358 4.348-1.123 1.556.236 2.915 1.08 3.826 2.375 1.766 2.511 1.248 5.943-1.18 7.817l-.004.003c-1.094.843-1.297 2.413-.455 3.506.843 1.093 2.413 1.297 3.506.455l8.175-6.298c1.212-.933 2.717-1.337 4.231-1.143 1.517.197 2.866.972 3.8 2.184s1.339 2.714 1.143 4.231c-.197 1.517-.972 2.867-2.184 3.8l-8.175 6.299c-1.094.843-1.297 2.413-.455 3.506.843 1.093 2.412 1.297 3.506.455 1.212-.933 2.716-1.337 4.231-1.143 1.517.197 2.867.972 3.8 2.184.934 1.211 1.339 2.714 1.143 4.231-.197 1.517-.972 2.866-2.184 3.8l-7.092 5.464c-1.094.843-1.297 2.413-.455 3.506.843 1.093 2.413 1.297 3.506.455l.006-.005c1.366-1.05 3.143-1.474 4.882-1.164 1.598.285 2.93 1.16 3.75 2.464 1.549 2.458.825 5.874-1.645 7.778z"/></g></g></g><g><g><g><path d="m228.283 157.59c-.496-.557-1.234-.86-1.978-.835-.311.012-.621.024-.935.024-14.132 0-25.629-11.497-25.629-25.629 0-4.206 1.043-8.38 3.018-12.071.464-.868.376-1.927-.225-2.706l-40.695-52.755c-5.987-7.761-17.171-9.204-24.933-3.218l-68.214 52.62c-3.747 2.89-6.145 7.082-6.754 11.802-.609 4.721.647 9.384 3.537 13.13l11.706 15.176c.575.747 1.521 1.106 2.446.929.925-.175 1.673-.856 1.935-1.761.356-1.229.779-2.646 1.298-3.904.026-.064.05-.129.071-.196 2.455-7.726 7.146-14.425 13.567-19.372l8.711-6.711c2.868-2.21 6.927-2.023 9.241.424 1.313 1.389 1.953 3.202 1.803 5.107-.148 1.885-1.084 3.622-2.566 4.764-1.094.843-1.297 2.413-.455 3.506.843 1.093 2.412 1.297 3.506.455l31.924-24.597c.029-.023.059-.046.086-.07.043-.031.086-.063.13-.096 1.247-.961 2.792-1.358 4.349-1.123 1.556.236 2.915 1.08 3.825 2.375 1.764 2.508 1.249 5.936-1.171 7.811l-.012.009c-1.094.843-1.297 2.413-.455 3.506.843 1.093 2.413 1.297 3.506.455.005-.004.01-.008.015-.011l8.16-6.287c1.212-.934 2.716-1.342 4.231-1.143 1.517.197 2.866.972 3.8 2.184s1.339 2.714 1.143 4.231c-.197 1.517-.972 2.866-2.184 3.8l-8.175 6.299c-1.094.843-1.297 2.413-.455 3.506.844 1.094 2.413 1.298 3.506.455l.005-.004c1.21-.931 2.711-1.338 4.227-1.139 1.517.197 2.866.972 3.8 2.184s1.34 2.714 1.143 4.231-.972 2.866-2.184 3.8l-7.088 5.461c-.001.001-.002.002-.004.003-1.094.843-1.297 2.413-.455 3.506.843 1.093 2.413 1.297 3.506.455 1.366-1.053 3.147-1.48 4.889-1.169 1.598.285 2.93 1.16 3.75 2.463 1.546 2.459.822 5.875-1.648 7.779l-42.667 32.873c-2.708 2.087-5.717 3.731-8.942 4.886-.033.012-.067.024-.1.038-.981.399-2.076.773-3.234 1.169-.824.282-1.681.575-2.57.9-.748.274-1.321.888-1.542 1.653s-.064 1.59.422 2.221l8.808 11.418c2.89 3.747 7.082 6.145 11.802 6.754.779.101 1.557.15 2.329.15 3.906 0 7.674-1.274 10.802-3.687l68.214-52.62c3.607-2.782 5.979-6.82 6.679-11.37.116-.733-.124-1.482-.62-2.038zm-9.111 9.453-68.214 52.62c-2.689 2.074-6.041 2.976-9.437 2.537-3.396-.438-6.409-2.16-8.483-4.849l-6.689-8.672c.929-.32 1.819-.636 2.682-.986 3.699-1.33 7.15-3.219 10.258-5.614l42.666-32.872c4.489-3.459 5.731-9.785 2.829-14.401-1.29-2.05-3.208-3.545-5.503-4.316 2.112-1.738 3.463-4.174 3.816-6.899.369-2.841-.392-5.656-2.141-7.926-1.256-1.631-2.915-2.84-4.804-3.528l.987-.76c4.685-3.61 5.56-10.358 1.95-15.044-1.749-2.27-4.277-3.723-7.118-4.091-2.84-.371-5.656.392-7.926 2.141l-.988.762c-.171-1.798-.799-3.576-1.913-5.16-1.702-2.421-4.247-3.999-7.165-4.442-2.918-.445-5.814.304-8.149 2.104l-.204.156c-.004.003-.008.006-.013.01 0 0-.001.001-.001.001l-24.35 18.762c-.132-2.772-1.251-5.434-3.176-7.471-4.054-4.29-11.051-4.708-15.927-.95l-8.711 6.711c-7.141 5.502-12.383 12.927-15.175 21.491l-8.837-11.457c-2.074-2.689-2.975-6.04-2.537-9.437.438-3.396 2.16-6.409 4.849-8.483l68.214-52.62c5.579-4.303 13.618-3.265 17.92 2.313l39.737 51.513c-1.886 4.038-2.876 8.487-2.876 12.965 0 16.157 12.576 29.432 28.453 30.552-.837 2.102-2.214 3.943-4.024 5.34z"/></g></g></g><g><g><g><g><path d="m241.027 120.526c-1.452-1.452-3.383-2.252-5.438-2.252s-3.986.8-5.438 2.252l-7.214 7.213-2.346-2.347c-1.452-1.452-3.383-2.252-5.438-2.252s-3.986.8-5.438 2.252c-2.999 2.998-3 7.877-.001 10.877l7.786 7.786c1.453 1.453 3.384 2.252 5.438 2.252 2.055 0 3.986-.8 5.438-2.253l12.651-12.651c1.453-1.453 2.253-3.384 2.253-5.439s-.8-3.986-2.253-5.438zm-3.535 7.342-12.652 12.652c-1.016 1.016-2.788 1.015-3.806 0l-7.784-7.785c-1.049-1.05-1.049-2.757.001-3.807.507-.508 1.183-.788 1.902-.788s1.395.28 1.902.788l4.114 4.115c.469.469 1.105.732 1.768.732s1.299-.263 1.768-.732l8.982-8.981c1.015-1.015 2.789-1.016 3.805 0 .508.508.789 1.184.789 1.903s-.281 1.394-.789 1.903z"/></g></g></g></g></g></g></svg>