<svg height="512" viewBox="0 0 512 512" width="512" xmlns="http://www.w3.org/2000/svg"><g id="Filled_outline" data-name="Filled outline"><path d="m488 56h-96l-53.865-26.933a48 48 0 0 0 -21.466-5.067h-52.669a24 24 0 0 0 -24 24v48a24 24 0 0 0 24 24h64l56 40h104z" fill="#85ccd5"/><circle cx="240" cy="272" fill="#dfdfdd" r="216"/><circle cx="240" cy="272" fill="#d5d5d3" r="144"/><path d="m448 88h-132a20 20 0 0 0 -20 20 20 20 0 0 0 20 20h44a57.889 57.889 0 0 0 51.777 32h36.223z" fill="#85ccd5"/><path d="m203.716 151.833-.478.479a48 48 0 1 0 -66.926 66.926l-.479.478a40 40 0 0 0 0 56.568 40 40 0 0 0 56.569 0l67.882-67.884a40 40 0 0 0 0-56.569 40 40 0 0 0 -56.568.002z" fill="#f1f1f1"/><path d="m191 347.5a27.5 27.5 0 1 0 -50.721 14.725 32 32 0 1 0 36.406 9.411 27.49 27.49 0 0 0 14.315-24.136z" fill="#f1f1f1"/><rect fill="#ffb431" height="256" rx="8" width="144" x="168" y="184"/><rect fill="#5f9448" height="200" rx="8" width="144" x="168" y="240"/><path d="m488 272h-119.467l-58.981-45.537a19.464 19.464 0 0 0 -25.658 1.643 19.464 19.464 0 0 0 -1.85 25.386l25.689 34.508h-67.733a24 24 0 0 0 -24 24v64a24 24 0 0 0 24 24h248z" fill="#85ccd5"/><g fill="#f1f1f1"><circle cx="408" cy="424" r="32"/><circle cx="56" cy="56" r="32"/><circle cx="176" cy="64" r="24"/></g><path d="m352 80h40v16h-40z" fill="#7cc1c9"/><path d="m488 168a8 8 0 0 0 8-8v-104a8 8 0 0 0 -8-8h-94.112l-52.172-26.082a56.161 56.161 0 0 0 -25.046-5.918h-52.67a32.036 32.036 0 0 0 -32 32v.156a225.39 225.39 0 0 0 -26.9 2.563 32 32 0 1 0 2.8 15.757 210.088 210.088 0 0 1 32.1-2.476 207.966 207.966 0 0 1 80.1 16h-4.1a28 28 0 0 0 0 56h39.266a65.49 65.49 0 0 0 56.511 32h8.389a207.6 207.6 0 0 1 27.676 96h-76.583l-51.259-39.578v-32.422a16.019 16.019 0 0 0 -16-16h-24.186a48.012 48.012 0 0 0 -75.636-35.011c-.153-.156-.306-.311-.461-.466a56 56 0 0 0 -92.917 56.732 55.261 55.261 0 0 0 13.708 22.445c.159.159.319.319.48.476a48.068 48.068 0 0 0 14.985 69.324l8.054-13.826a32.008 32.008 0 0 1 -6.54-50.3l.48-.48a8 8 0 0 0 -1.018-12.174 39.982 39.982 0 0 1 -5.11-60.888 40.183 40.183 0 0 1 47.49-6.817 43.281 43.281 0 0 1 11.189 9.107c.8.933 1.534 1.877 2.194 2.809a8 8 0 0 0 12.185 1.033l.48-.48a32 32 0 0 1 54.359 18.516h-87.736a16.019 16.019 0 0 0 -16 16v120.174a35.51 35.51 0 0 0 -30.186 46.541q-1.522 1.017-2.958 2.178a39.991 39.991 0 0 0 33.144 70.294v.813a16.019 16.019 0 0 0 16 16h128a16.019 16.019 0 0 0 16-16v-24h40v-16h-120a16.019 16.019 0 0 1 -16-16v-64a16.019 16.019 0 0 1 16-16h67.729a8.065 8.065 0 0 0 6.418-12.777l-25.661-34.471a11.466 11.466 0 0 1 16.178-15.958l58.977 45.538a7.993 7.993 0 0 0 4.889 1.668h111.47v112h-24v16h32a8 8 0 0 0 8-8v-128a8 8 0 0 0 -8-8h-24.145a223.7 223.7 0 0 0 -25.426-96zm-336 248a24 24 0 0 1 -8.8-46.332 8 8 0 0 0 3.825-11.749 19.475 19.475 0 0 1 12.975-29.587v86.291a24.07 24.07 0 0 1 -8 1.377zm139.8-136h-51.8a32.036 32.036 0 0 0 -32 32v64a32.036 32.036 0 0 0 32 32h64v24h-128v-184h94.9c.581 2.547 20.9 32 20.9 32zm-13.568-57.547a27.489 27.489 0 0 0 -6.19 9.547h-96.042v-40h128v23.185a27.514 27.514 0 0 0 -25.767 7.268zm-102.232-142.453a16 16 0 1 1 16-16 16.019 16.019 0 0 1 -16 16zm235.777 72a49.617 49.617 0 0 1 -44.622-27.578 8 8 0 0 0 -7.155-4.422h-44a12 12 0 0 1 0-24h76v-16h-36.591a223.368 223.368 0 0 0 -107.409-31.856v-.144a16.019 16.019 0 0 1 16-16h52.67a40.063 40.063 0 0 1 17.883 4.226l53.87 26.93a8 8 0 0 0 3.577.844h88v88z"/><path d="m240 480c-114.691 0-208-93.309-208-208a207.907 207.907 0 0 1 105.517-181.036l-7.894-13.917a223.907 223.907 0 0 0 -113.623 194.953 224.029 224.029 0 0 0 348.451 186.272l-8.9-13.3a206.955 206.955 0 0 1 -115.551 35.028z"/><path d="m374.554 252.091 15.831-2.32a152.223 152.223 0 0 0 -65.935-104.171l-8.9 13.295a136.2 136.2 0 0 1 59.004 93.196z"/><path d="m96.191 222.663a152.326 152.326 0 0 0 13.83 128.169l13.672-8.311a136.325 136.325 0 0 1 -12.368-114.665z"/><path d="m408 384a40 40 0 1 0 40 40 40.045 40.045 0 0 0 -40-40zm0 64a24 24 0 1 1 24-24 24.028 24.028 0 0 1 -24 24z"/><path d="m56 96a40 40 0 1 0 -40-40 40.045 40.045 0 0 0 40 40zm0-64a24 24 0 1 1 -24 24 24.028 24.028 0 0 1 24-24z"/></g></svg>