<svg height="512" viewBox="0 0 512 512" width="512" xmlns="http://www.w3.org/2000/svg"><g id="Filled_outline" data-name="Filled outline"><g fill="#4db6e4"><path d="m72 72h32v16h-32z"/><path d="m16 72h32v16h-32z"/><path d="m83.022 24.134h16v32h-16z" transform="matrix(.446 -.895 .895 .446 14.484 103.676)"/><path d="m32.908-.859h16v32h-16z" transform="matrix(.446 -.895 .895 .446 9.102 44.992)"/><path d="m75.022 111.141h32v16h-32z" transform="matrix(.895 -.446 .446 .895 -43.604 53.145)"/><path d="m24.908 136.133h32v16h-32z" transform="matrix(.895 -.446 .446 .895 -60.025 33.407)"/><path d="m224 248h232v-128h-80l-32-24h-120z"/></g><path d="m456 136h32v96h-32z" fill="#fdc8a2"/><path d="m328 488h-144a24 24 0 0 1 -24-24v-70.737a310.36 310.36 0 0 1 32.764-138.792 310.325 310.325 0 0 0 23.5-63.522l7.736-30.949h64l7.737 30.949a310.325 310.325 0 0 0 23.5 63.522 310.36 310.36 0 0 1 32.763 138.792v70.737a24 24 0 0 1 -24 24z" fill="#ffb431"/><path d="m192 168h-24v-96l32 24z" fill="#df6257"/><path d="m288 40h-120v40l56 40v40h64v-64l40-16a40 40 0 0 0 -40-40z" fill="#d65246"/><path d="m136 40h32v40h-32z" fill="#df6257"/><rect fill="#4db6e4" height="32" rx="16" width="72" x="128" y="96"/><rect fill="#4db6e4" height="32" rx="16" width="72" x="176" y="168"/><rect fill="#4db6e4" height="32" rx="16" width="72" x="176" y="200"/><rect fill="#4db6e4" height="32" rx="16" width="72" x="176" y="232"/><path d="m233 96a17 17 0 0 0 -2.108 33.861l49.108 6.139 1.144 2.861a59.082 59.082 0 0 0 54.856 37.139v-80z" fill="#4db6e4"/><path d="m248 328h64a0 0 0 0 1 0 0v32a48 48 0 0 1 -48 48h-64a0 0 0 0 1 0 0v-32a48 48 0 0 1 48-48z" fill="#ffc261"/><path d="m456 136h16v96h-16z" fill="#fdbf92"/><path d="m488 128h-24v-8a8 8 0 0 0 -8-8h-77.333l-29.867-22.4a8 8 0 0 0 -4.8-1.6h-14.459l1.43-.572a8 8 0 0 0 5.029-7.428 48.014 48.014 0 0 0 -48-48h-56v16h56a32.036 32.036 0 0 1 31.574 26.754l-33.115 13.246h-53.459a25.013 25.013 0 0 0 -21.9 12.954l-35.1-25.071v-27.883h40v-16h-80a8 8 0 0 0 -8 8v40a8 8 0 0 0 8 8h8a24 24 0 0 0 0 48h16v32a8 8 0 0 0 8 8h1.376a23.943 23.943 0 0 0 4.755 24 23.943 23.943 0 0 0 0 32 23.956 23.956 0 0 0 3.807 35.431 319.47 319.47 0 0 0 -12.487 34.269l15.324 4.6a303.329 303.329 0 0 1 12.612-34.3h38.613a23.984 23.984 0 0 0 17.869-40 23.943 23.943 0 0 0 0-32 23.943 23.943 0 0 0 0-32h31.885l6.225 24.89a318.39 318.39 0 0 0 24.105 65.156 303.15 303.15 0 0 1 23.831 65.754 302.5 302.5 0 0 1 8.085 69.46v70.74a16.019 16.019 0 0 1 -16 16h-144a16.019 16.019 0 0 1 -16-16v-70.74a302.857 302.857 0 0 1 6.76-63.578l-15.643-3.364a318.968 318.968 0 0 0 -7.117 66.942v70.74a32.036 32.036 0 0 0 32 32h144a32.036 32.036 0 0 0 32-32v-70.74a318.542 318.542 0 0 0 -8.514-73.139 319.185 319.185 0 0 0 -25.091-69.23 302.356 302.356 0 0 1 -22.895-61.882l-3.923-15.689a66.982 66.982 0 0 0 36.423 10.68v-16a50.837 50.837 0 0 1 -47.428-32.111l-1.144-2.861a8 8 0 0 0 -6.436-4.966l-49.112-6.14a9 9 0 0 1 1.12-17.922h108.333l29.867 22.4a8 8 0 0 0 4.8 1.6h72v112h-16v-88h-16v88h-72v16h112a8 8 0 0 0 8-8v-8h24a8 8 0 0 0 8-8v-96a8 8 0 0 0 -8-8zm-283.02-4.362a23.812 23.812 0 0 0 2.289-5.759l1.471 1.051a25.052 25.052 0 0 0 7.26 12.365v27.72l-.246.985h-14.816zm-60.98-75.638h16v24h-16zm-8 64a8.009 8.009 0 0 1 8-8h40a8 8 0 0 1 0 16h-40a8.009 8.009 0 0 1 -8-8zm51.536 23.738-2.696 24.262h-8.84v-24s10.382-.091 11.536-.262zm44.464 40.262a8 8 0 0 1 0 16h-40a8 8 0 0 1 0-16zm8 40a8.009 8.009 0 0 1 -8 8h-40a8 8 0 0 1 0-16h40a8.009 8.009 0 0 1 8 8zm-8 40h-40a8 8 0 0 1 0-16h40a8 8 0 0 1 0 16zm46.807-104h-46.807v-13.938l42.348 5.293a67.826 67.826 0 0 0 4.459 8.645zm201.193 72h-16v-80h16z"/><path d="m72 72h32v16h-32z"/><path d="m16 72h32v16h-32z"/><path d="m83.022 24.134h16v32h-16z" transform="matrix(.446 -.895 .895 .446 14.484 103.676)"/><path d="m32.908-.859h16v32h-16z" transform="matrix(.446 -.895 .895 .446 9.102 44.992)"/><path d="m75.022 111.141h32v16h-32z" transform="matrix(.895 -.446 .446 .895 -43.604 53.145)"/><path d="m24.908 136.133h32v16h-32z" transform="matrix(.895 -.446 .446 .895 -60.025 33.407)"/><path d="m264 416a56.064 56.064 0 0 0 56-56v-32a8 8 0 0 0 -8-8h-64a56.064 56.064 0 0 0 -56 56v32a8 8 0 0 0 8 8zm-56-40a40.045 40.045 0 0 1 40-40h56v24a40.045 40.045 0 0 1 -40 40h-56z"/></g></svg>