<svg id="Layer_1" enable-background="new 0 0 512 512" height="512" viewBox="0 0 512 512" width="512" xmlns="http://www.w3.org/2000/svg"><g><path d="m279.371 161.52c4.139 0 7.484 3.373 7.484 7.512s-3.346 7.512-7.484 7.512h-15.959v38.296c0 4.14-3.345 7.484-7.482 7.484-4.168 0-7.513-3.345-7.513-7.484v-38.296h-15.392c-18.482 0-26.732 17.036-26.761 17.093-1.842 3.714-6.35 5.216-10.034 3.373-3.714-1.843-5.216-6.35-3.373-10.063.028-.057 12.274-25.427 40.168-25.427z" fill="#64aa91"/><path clip-rule="evenodd" d="m233.479 214.84h44.873c3.316 0 6.009 2.694 6.009 5.982v50.258c0 3.288-2.692 6.01-6.009 6.01h-44.873c-3.316 0-6.01-2.722-6.01-6.01v-50.258c0-3.288 2.693-5.982 6.01-5.982z" fill="#4a80aa" fill-rule="evenodd"/><path clip-rule="evenodd" d="m248.36 214.84h29.991c3.316 0 6.009 2.694 6.009 5.982v50.258c0 3.288-2.692 6.01-6.009 6.01h-29.991c3.288 0 6.01-2.722 6.01-6.01v-50.258c0-3.288-2.722-5.982-6.01-5.982z" fill="#407093" fill-rule="evenodd"/><path clip-rule="evenodd" d="m342.528 512v-164.582c0-47.623-38.977-86.6-86.599-86.6-47.651 0-86.628 38.977-86.628 86.6v164.582z" fill="#78c2a4" fill-rule="evenodd"/><path clip-rule="evenodd" d="m342.528 512v-164.582c0-47.623-38.977-86.6-86.599-86.6-5.131 0-10.148.454-15.024 1.305 40.564 7.143 71.633 42.775 71.633 85.295v164.582z" fill="#64aa91" fill-rule="evenodd"/><path clip-rule="evenodd" d="m255.93 463.413c39.316 0 71.405-34.583 71.405-77.019 0-42.406-32.089-76.989-71.405-76.989-39.346 0-71.435 34.583-71.435 76.989 0 42.436 32.089 77.019 71.435 77.019z" fill="#ccf49f" fill-rule="evenodd"/><path clip-rule="evenodd" d="m255.93 309.405c39.43 0 71.405 34.47 71.405 76.989 0 42.549-31.976 77.019-71.405 77.019-5.16 0-10.177-.596-15.024-1.701 32.259-7.455 56.439-38.324 56.439-75.317 0-36.964-24.18-67.861-56.439-75.288 4.847-1.106 9.864-1.702 15.024-1.702z" fill="#b3e59f" fill-rule="evenodd"/><path d="m332.097 36.681c-.028-4.139 3.26-7.512 7.398-7.568 4.11-.057 7.512 3.26 7.541 7.398.027.17 1.502 64.263-44.93 96.039-3.401 2.324-8.079 1.446-10.404-1.955-2.324-3.432-1.445-8.08 1.956-10.404 39.743-27.185 38.439-83.369 38.439-83.51z" fill="#61a2f9"/><g clip-rule="evenodd" fill-rule="evenodd"><path d="m323.849 0c-9.326 0-16.98 7.653-16.98 16.979 0 9.752 9.015 14.372 16.98 16.979l45.326 14.912c3.968 1.303 5.697 4.194 5.697 7.852v54.057h50.259v-41.896c0-3.969 2.154-5.98 5.981-5.98h58.196c3.968 0 6.009-1.814 6.009-6.01v-7.938c0-3.515-1.133-7.172-4.223-10.262l-34.016-34.413c-2.693-2.749-6.095-4.28-10.233-4.28z" fill="#cbe2ff"/><path d="m395.112 110.779h30.019v-41.896c0-3.969 2.154-5.98 5.981-5.98h-29.991c-3.826 0-6.009 2.012-6.009 5.98zm64.204-47.877h29.992c3.968 0 6.009-1.814 6.009-6.01v-7.938c0-3.515-1.133-7.172-4.223-10.262l-34.016-34.412c-2.693-2.749-6.095-4.28-10.233-4.28h-29.991c4.139 0 7.512 1.531 10.205 4.28l34.044 34.413c3.062 3.09 4.224 6.747 4.224 10.262v7.938c-.001 4.195-2.042 6.009-6.011 6.009z" fill="#9dc6fb"/><path d="m363.363 105.79h73.276c3.288 0 5.982 2.693 5.982 6.01v42.492l-44.844 8.249-40.424-8.249v-42.492c0-3.317 2.694-6.01 6.01-6.01z" fill="#4a80aa"/><path d="m406.621 105.79h30.018c3.288 0 5.982 2.693 5.982 6.01v42.492h-29.99v-42.492c0-3.317-2.693-6.01-6.01-6.01z" fill="#407093"/><path d="m336.037 512h127.9c15.138 0 27.525-12.359 27.525-27.496v-160.897c0-57.743-48.842-46.943-48.842-114.323v-54.992h-85.268v54.992c0 67.38-48.813 56.58-48.813 114.323v160.897c.002 15.108 12.361 27.496 27.498 27.496z" fill="#9dc6fb"/><path d="m433.947 512h29.99c15.138 0 27.525-12.359 27.525-27.496v-160.897c0-57.743-48.842-46.943-48.842-114.323v-54.992h-29.99v54.992c0 67.38 48.84 56.58 48.84 114.323v160.897c.001 15.137-12.386 27.496-27.523 27.496z" fill="#80b4fb"/><path d="m161.648 247.043v-44.789c0-29.366-24.037-53.404-53.377-53.404-29.367 0-53.405 24.038-53.405 53.404v44.789z" fill="#e9f5ff"/><path d="m161.648 247.043v-44.789c0-29.366-24.009-53.404-53.377-53.404-5.216 0-10.262.765-15.023 2.183 22.139 6.52 38.41 27.043 38.41 51.222v44.789h29.99z" fill="#cbe2ff"/><path d="m96.365 202.481h23.782c3.316 0 6.01 2.692 6.01 6.009v44.222c0 3.288-2.693 5.981-6.01 5.981h-23.782c-3.316 0-6.01-2.693-6.01-5.981v-44.222c0-3.316 2.694-6.009 6.01-6.009z" fill="#e59b6c"/><path d="m54.865 247.043h106.782v39.033h-106.782z" fill="#4a80aa"/><path d="m131.657 247.043h29.99v39.033h-29.99z" fill="#407093"/><path d="m44.435 512h127.645c15.279 0 27.752-12.473 27.752-27.751v-37.22l-9.962-51.025 9.962-50.996v-37.247c0-15.252-12.473-27.752-27.752-27.752h-127.645c-15.252 0-27.752 12.5-27.752 27.752v37.247l6.622 50.996-6.622 51.025v37.22c0 15.278 12.5 27.751 27.752 27.751z" fill="#dd636e"/><path d="m142.089 512h29.99c15.279 0 27.752-12.473 27.752-27.751v-37.22l-7.761-51.01 7.761-51.01v-37.247c0-15.252-12.473-27.752-27.752-27.752h-29.99c15.25 0 27.751 12.5 27.751 27.752v176.487c0 15.278-12.501 27.751-27.751 27.751z" fill="#da4a54"/><path d="m16.683 345.009h183.148v102.021h-183.148z" fill="#ffe07d"/><path d="m169.84 345.009h29.991v102.021h-29.991z" fill="#ffd064"/><path d="m308.541 349.487h32.599c7.455 0 10.092.822 14.23-5.045 10.742-15.223 26.732-24.889 44.618-24.889 17.887 0 33.902 9.666 44.617 24.916 4.139 5.868 6.774 5.018 14.229 5.018h32.628v81.129h-32.628c-7.455 0-10.091-.851-14.229 5.017-10.715 15.251-26.73 24.917-44.617 24.917s-33.876-9.666-44.618-24.888c-4.139-5.868-6.775-5.046-14.23-5.046h-32.599z" fill="#80b4fb"/></g><path d="m383.49 427.555c-4.14 0-7.484-3.373-7.484-7.512s3.345-7.483 7.484-7.483h32.995c4.139 0 7.512 3.345 7.512 7.483 0 4.139-3.373 7.512-7.512 7.512zm0-60.011c-4.14 0-7.484-3.345-7.484-7.483 0-4.139 3.345-7.512 7.484-7.512h32.995c4.139 0 7.512 3.373 7.512 7.512s-3.373 7.483-7.512 7.483zm0 30.021c-4.14 0-7.484-3.373-7.484-7.512s3.345-7.513 7.484-7.513h32.995c4.139 0 7.512 3.374 7.512 7.513s-3.373 7.512-7.512 7.512z" fill="#3e6dab"/><path d="m114.988 418.512c-4.139 0-7.512-3.345-7.512-7.512 0-4.139 3.373-7.483 7.512-7.483h54.314c4.139 0 7.483 3.345 7.483 7.483 0 4.167-3.345 7.512-7.483 7.512zm0-29.99c-4.139 0-7.512-3.373-7.512-7.513 0-4.139 3.373-7.483 7.512-7.483h54.314c4.139 0 7.483 3.345 7.483 7.483 0 4.14-3.345 7.513-7.483 7.513z" fill="#da4a54"/><path clip-rule="evenodd" d="m67.707 417.52c11.849 0 21.515-9.666 21.515-21.515s-9.666-21.516-21.515-21.516c-11.85 0-21.516 9.667-21.516 21.516 0 11.848 9.666 21.515 21.516 21.515z" fill="#da4a54" fill-rule="evenodd"/><path clip-rule="evenodd" d="m461.471 349.487h29.992v81.129h-29.992z" fill="#61a2f9" fill-rule="evenodd"/></g></svg>