<svg id="Capa_1" enable-background="new 0 0 512 512" height="512" viewBox="0 0 512 512" width="512" xmlns="http://www.w3.org/2000/svg"><g><path d="m412.281 364.423h-32.928v-347.959c0-9.093 7.371-16.464 16.464-16.464 9.093 0 16.464 7.371 16.464 16.464z" fill="#fee97d"/><path d="m412.276 16.464v347.956h-17.343v-347.956c0-4.549-1.844-8.667-4.815-11.648-.891-.891-1.895-1.68-2.971-2.356 2.51-1.557 5.481-2.459 8.667-2.459 4.548 0 8.667 1.844 11.637 4.815 2.981 2.982 4.825 7.1 4.825 11.648z" fill="#fedf30"/><path d="m412.281 70.347h-32.928v-53.883c0-9.093 7.371-16.464 16.464-16.464 9.093 0 16.464 7.371 16.464 16.464z" fill="#d1f19e"/><path d="m412.276 16.464v53.884h-17.354v-53.884c0-4.549-1.844-8.667-4.825-11.648-.891-.891-1.885-1.68-2.961-2.346 2.52-1.568 5.491-2.469 8.677-2.469 4.548 0 8.667 1.844 11.637 4.815 2.982 2.982 4.826 7.1 4.826 11.648z" fill="#bbec6c"/><path d="m395.817 348.442s-62.197-1.843-70.49 57.589h70.49 70.49c-8.293-59.432-70.49-57.589-70.49-57.589z" fill="#b5adb6"/><path d="m466.304 406.032h-24.381c-10.559-51.395-68.38-47.339-68.38-47.339s-10.019-.297-22.548 3.196c20.304-14.178 44.818-13.451 44.818-13.451s62.203-1.843 70.491 57.594z" fill="#a79ba7"/><g><path d="m476.903 479.736c-3.686-36.867-10.596-73.705-10.596-73.705h-70.49-70.49s-6.911 36.838-10.596 73.705l-1.615 22.61c-.372 5.214 3.758 9.65 8.985 9.65h73.715 73.715c5.228 0 9.358-4.435 8.985-9.65z" fill="#fddeb0"/><path d="m469.535 511.998h-14.717l-2.305-32.259c-3.688-36.869-10.592-73.707-10.592-73.707h24.381s6.915 36.838 10.603 73.707l1.615 22.609c.373 5.214-3.757 9.65-8.985 9.65z" fill="#fccd7f"/><g><g><g><path d="m445.892 512h-15.437c-1.82-35.276-8.937-62.859-9.009-63.136-1.07-4.124 1.399-8.33 5.523-9.41 4.124-1.07 8.33 1.399 9.41 5.523.309 1.183 7.631 29.599 9.503 66.633.01.133.01.256.01.39z" fill="#fccd7f"/></g></g><g><g><path d="m370.189 448.864c-.113.422-7.199 28.046-9.009 63.136h-15.437c0-.134 0-.257.01-.391 1.872-37.034 9.194-65.45 9.503-66.633 1.08-4.124 5.296-6.603 9.41-5.523 4.124 1.08 6.592 5.287 5.523 9.411z" fill="#fccd7f"/></g></g></g><g><path d="m403.531 446.92v65.08h-15.427v-65.08c0-4.258 3.456-7.713 7.713-7.713 4.258 0 7.714 3.455 7.714 7.713z" fill="#fccd7f"/></g></g><path d="m181.522 54.718c-2.925 10.055-11.445 31.469-32.641 40.973-1.105.496-1.105 2.038 0 2.534 21.196 9.504 29.716 30.918 32.641 40.973.386 1.327 2.259 1.327 2.646 0 2.925-10.055 11.445-31.469 32.641-40.973 1.105-.496 1.105-2.038 0-2.534-21.196-9.504-29.716-30.918-32.641-40.973-.387-1.328-2.26-1.328-2.646 0z" fill="#fee97d"/><path d="m79.722 81.805c-4.044 13.899-15.82 43.5-45.119 56.637-1.528.685-1.528 2.817 0 3.502 29.299 13.137 41.076 42.737 45.119 56.637.534 1.835 3.123 1.835 3.657 0 4.044-13.899 15.82-43.5 45.119-56.637 1.528-.685 1.528-2.817 0-3.502-29.299-13.137-41.076-42.737-45.119-56.637-.534-1.834-3.123-1.834-3.657 0z" fill="#fee97d"/><path d="m216.813 98.223c-21.195 9.507-29.719 30.917-32.648 40.977-.379 1.322-2.254 1.322-2.643 0-1.403-4.814-4.087-12.232-8.831-19.7 3.401-10.06 11.197-26.532 27.547-35.721 4.395 4.671 9.845 8.892 16.575 11.914 1.106.492 1.106 2.039 0 2.53z" fill="#fedf30"/><path d="m128.497 141.946c-29.298 13.133-41.079 42.739-45.116 56.64-.533 1.834-3.124 1.834-3.657 0-1.629-5.593-4.507-13.717-9.271-22.291 5.429-14.813 17.2-37.217 40.956-48.722 4.897 4.2 10.562 7.939 17.087 10.869 1.528.687 1.528 2.818.001 3.504z" fill="#fedf30"/><path d="m332.891 264.674c6.157-4.121 10.21-11.139 10.21-19.104 0-12.687-10.285-22.972-22.972-22.972-5.359 0-10.285 1.84-14.193 4.916-4.338-11.41-15.37-19.521-28.301-19.521-7.175 0-13.763 2.501-18.951 6.673.01-.381.029-.761.029-1.145 0-23.02-18.662-41.682-41.682-41.682s-41.682 18.662-41.682 41.682c0 .384.019.763.029 1.145-5.188-4.171-11.776-6.673-18.951-6.673-16.72 0-30.274 13.554-30.274 30.274 0 10.95 5.814 21.09 14.523 26.406h192.215z" fill="#b3dafe"/><path d="m342.98 243.195c.894 8.93-3.323 16.956-10.084 21.482h-3.437c.011-.203.011-.407.011-.61 0-12.686-10.288-22.975-22.975-22.975-2.531 0-4.966.412-7.244 1.17-4.005 1.334-8.406-.112-10.918-3.504-5.512-7.44-11.399-10.914-21.374-10.914-3.074 0-6.042.46-8.838 1.314-5.349 1.633-10.986-1.293-12.478-6.684-1-3.614-2.363-7.399-4.173-10.358-7.562-12.361-22.205-22.971-38.072-21.781-9.555.717-18.403 3.233-25.448 8.672 5.888-15.866 21.165-27.171 39.076-27.171 23.028 0 41.688 18.66 41.688 41.688 0 .386-.021.76-.032 1.146 5.192-4.175 11.776-6.68 18.949-6.68 12.933 0 23.97 8.115 28.306 19.527 4.486-3.54 10.313-5.443 16.59-4.801 10.723 1.095 19.379 9.755 20.453 20.479z" fill="#8ac9fe"/><path d="m125.547 295.595 9.961 186.656c.89 16.678 14.673 29.745 31.375 29.745h135.489c16.702 0 30.485-13.067 31.375-29.745l9.961-186.656z" fill="#d1f19e"/><path d="m343.708 295.599-9.957 186.65c-.891 16.678-14.68 29.749-31.378 29.749h-21.226c16.698 0 30.487-13.072 31.378-29.749l9.957-186.65z" fill="#bbec6c"/><path d="m347.017 258.614h-224.78c-4.337 0-7.853 3.516-7.853 7.853v21.275c0 4.337 3.516 7.853 7.853 7.853h64.236c6.988 0 13.331 4.2 15.937 10.684 5.13 12.763 17.619 21.774 32.217 21.774s27.087-9.011 32.217-21.774c2.606-6.483 8.949-10.684 15.937-10.684h64.236c4.337 0 7.853-3.516 7.853-7.853v-21.274c0-4.338-3.516-7.854-7.853-7.854z" fill="#bbec6c"/><path d="m354.874 266.464v21.277c0 4.334-3.524 7.857-7.857 7.857h-21.636c4.333 0 7.847-3.524 7.847-7.857v-21.277c0-4.334-3.514-7.847-7.847-7.847h21.636c4.333 0 7.857 3.514 7.857 7.847z" fill="#a2e62e"/><path d="m104.368 417.237c5.678 5.678 14.885 5.678 20.564 0l116.875-116.875c5.678-5.678 5.678-14.885 0-20.563-5.678-5.678-14.885-5.678-20.563 0l-116.876 116.875c-5.678 5.678-5.678 14.885 0 20.563z" fill="#b5adb6"/><path d="m104.368 417.237c5.678 5.678 14.885 5.678 20.564 0l116.875-116.875c5.678-5.678 5.678-14.885 0-20.563-5.678-5.678-14.885-5.678-20.563 0l-116.876 116.875c-5.678 5.678-5.678 14.885 0 20.563z" fill="#b5adb6"/><path d="m241.809 300.362-116.877 116.877c-5.675 5.675-14.885 5.675-20.56 0-1.824-1.813-3.053-3.985-3.708-6.29 4.907 1.404 10.408.164 14.28-3.698l116.876-116.876c3.862-3.872 5.091-9.363 3.698-14.27 2.305.645 4.477 1.885 6.29 3.698 5.676 5.675 5.676 14.884.001 20.559z" fill="#a79ba7"/></g></svg>